<?xml version="1.0" encoding="UTF-8" standalone="no"?>
<!-- Created with Inkscape (http://www.inkscape.org/) -->

<svg
   xmlns:dc="http://purl.org/dc/elements/1.1/"
   xmlns:cc="http://creativecommons.org/ns#"
   xmlns:rdf="http://www.w3.org/1999/02/22-rdf-syntax-ns#"
   xmlns:svg="http://www.w3.org/2000/svg"
   xmlns="http://www.w3.org/2000/svg"
   xmlns:xlink="http://www.w3.org/1999/xlink"
   xmlns:sodipodi="http://sodipodi.sourceforge.net/DTD/sodipodi-0.dtd"
   xmlns:inkscape="http://www.inkscape.org/namespaces/inkscape"
   inkscape:export-ydpi="90"
   inkscape:export-xdpi="90"
   inkscape:export-filename="C:\Users\elclanrs\Desktop\customRadioCheck\customRadioCheck.png"
   sodipodi:docname="New document 1"
   inkscape:version="0.48.2 r9819"
   version="1.1"
   id="svg2"
   height="48"
   width="96">
  <sodipodi:namedview
     id="base"
     pagecolor="#ffffff"
     bordercolor="#666666"
     borderopacity="1.0"
     inkscape:pageopacity="1"
     inkscape:pageshadow="2"
     inkscape:zoom="2"
     inkscape:cx="26.065676"
     inkscape:cy="5.2163439"
     inkscape:document-units="px"
     inkscape:current-layer="layer1"
     showgrid="false"
     inkscape:showpageshadow="false"
     inkscape:window-width="1920"
     inkscape:window-height="1028"
     inkscape:window-x="-8"
     inkscape:window-y="-8"
     inkscape:window-maximized="1"
     showguides="false"
     inkscape:guide-bbox="true">
    <inkscape:grid
       type="xygrid"
       id="grid4231"
       empspacing="5"
       visible="true"
       enabled="true"
       snapvisiblegridlinesonly="true"
       spacingx="24px"
       spacingy="24px" />
    <sodipodi:guide
       orientation="1,0"
       position="192,480"
       id="guide4239" />
    <sodipodi:guide
       orientation="0,1"
       position="192,504"
       id="guide4241" />
    <sodipodi:guide
       orientation="0,1"
       position="192,528"
       id="guide4243" />
    <sodipodi:guide
       orientation="1,0"
       position="216,504"
       id="guide4245" />
    <sodipodi:guide
       orientation="1,0"
       position="168,504"
       id="guide4247" />
    <sodipodi:guide
       orientation="0,1"
       position="216,480"
       id="guide4249" />
    <sodipodi:guide
       orientation="0,1"
       position="216,552"
       id="guide4251" />
    <sodipodi:guide
       orientation="0,1"
       position="216,456"
       id="guide4253" />
    <sodipodi:guide
       orientation="1,0"
       position="240,528"
       id="guide4433" />
    <sodipodi:guide
       orientation="1,0"
       position="264,528"
       id="guide4435" />
  </sodipodi:namedview>
  <defs
     id="defs4">
    <linearGradient
       id="linearGradient3779">
      <stop
         id="stop3781"
         offset="0"
         style="stop-color:#cccccc;stop-opacity:1;" />
      <stop
         style="stop-color:#e3e3e3;stop-opacity:1;"
         offset="0.13315074"
         id="stop3783" />
      <stop
         id="stop3785"
         offset="1"
         style="stop-color:#ffffff;stop-opacity:1;" />
    </linearGradient>
    <linearGradient
       id="linearGradient3765">
      <stop
         style="stop-color:#e9e9e9;stop-opacity:1;"
         offset="0"
         id="stop3767" />
      <stop
         id="stop3775"
         offset="0.5"
         style="stop-color:#e3e3e3;stop-opacity:1;" />
      <stop
         style="stop-color:#ffffff;stop-opacity:1;"
         offset="1"
         id="stop3769" />
    </linearGradient>
    <filter
       inkscape:collect="always"
       id="filter3833"
       color-interpolation-filters="sRGB">
      <feGaussianBlur
         inkscape:collect="always"
         stdDeviation="0.5"
         id="feGaussianBlur3835" />
    </filter>
    <filter
       inkscape:collect="always"
       id="filter4009"
       color-interpolation-filters="sRGB">
      <feGaussianBlur
         inkscape:collect="always"
         stdDeviation="0.42426405"
         id="feGaussianBlur4011" />
    </filter>
    <filter
       color-interpolation-filters="sRGB"
       inkscape:collect="always"
       id="filter4009-6">
      <feGaussianBlur
         inkscape:collect="always"
         stdDeviation="0.42426405"
         id="feGaussianBlur4011-0" />
    </filter>
    <linearGradient
       inkscape:collect="always"
       xlink:href="#linearGradient3779"
       id="linearGradient4421"
       gradientUnits="userSpaceOnUse"
       x1="252.29771"
       y1="471.69006"
       x2="252.29771"
       y2="492.25873" />
    <linearGradient
       inkscape:collect="always"
       xlink:href="#linearGradient3779"
       id="linearGradient4423"
       gradientUnits="userSpaceOnUse"
       x1="252.29771"
       y1="471.69006"
       x2="252.29771"
       y2="492.25873" />
    <linearGradient
       inkscape:collect="always"
       xlink:href="#linearGradient3779"
       id="linearGradient4425"
       gradientUnits="userSpaceOnUse"
       x1="252.38231"
       y1="473.23358"
       x2="252.38231"
       y2="490.6828" />
    <linearGradient
       inkscape:collect="always"
       xlink:href="#linearGradient3779"
       id="linearGradient4427"
       gradientUnits="userSpaceOnUse"
       x1="252.38231"
       y1="473.23358"
       x2="252.38231"
       y2="490.6828" />
    <linearGradient
       inkscape:collect="always"
       xlink:href="#linearGradient3779"
       id="linearGradient4429"
       gradientUnits="userSpaceOnUse"
       x1="252.38231"
       y1="473.23358"
       x2="252.38231"
       y2="490.6828" />
    <linearGradient
       inkscape:collect="always"
       xlink:href="#linearGradient3779"
       id="linearGradient4431"
       gradientUnits="userSpaceOnUse"
       x1="252.38231"
       y1="473.23358"
       x2="252.38231"
       y2="490.6828" />
    <linearGradient
       inkscape:collect="always"
       xlink:href="#linearGradient3779"
       id="linearGradient4475"
       gradientUnits="userSpaceOnUse"
       x1="252.29771"
       y1="471.69006"
       x2="252.29771"
       y2="492.25873" />
    <linearGradient
       inkscape:collect="always"
       xlink:href="#linearGradient3779"
       id="linearGradient4477"
       gradientUnits="userSpaceOnUse"
       x1="252.29771"
       y1="471.69006"
       x2="252.29771"
       y2="492.25873" />
    <linearGradient
       inkscape:collect="always"
       xlink:href="#linearGradient3779"
       id="linearGradient4479"
       gradientUnits="userSpaceOnUse"
       x1="252.38231"
       y1="473.23358"
       x2="252.38231"
       y2="490.6828" />
    <linearGradient
       inkscape:collect="always"
       xlink:href="#linearGradient3779"
       id="linearGradient4481"
       gradientUnits="userSpaceOnUse"
       x1="252.38231"
       y1="473.23358"
       x2="252.38231"
       y2="490.6828" />
    <linearGradient
       inkscape:collect="always"
       xlink:href="#linearGradient3779"
       id="linearGradient4483"
       gradientUnits="userSpaceOnUse"
       x1="252.38231"
       y1="473.23358"
       x2="252.38231"
       y2="490.6828" />
    <linearGradient
       inkscape:collect="always"
       xlink:href="#linearGradient3779"
       id="linearGradient4485"
       gradientUnits="userSpaceOnUse"
       x1="252.38231"
       y1="473.23358"
       x2="252.38231"
       y2="490.6828" />
    <linearGradient
       inkscape:collect="always"
       xlink:href="#linearGradient3779"
       id="linearGradient4523"
       gradientUnits="userSpaceOnUse"
       x1="252.38231"
       y1="473.23358"
       x2="252.38231"
       y2="490.6828" />
    <linearGradient
       inkscape:collect="always"
       xlink:href="#linearGradient3779"
       id="linearGradient4525"
       gradientUnits="userSpaceOnUse"
       x1="252.38231"
       y1="473.23358"
       x2="252.38231"
       y2="490.6828" />
    <linearGradient
       inkscape:collect="always"
       xlink:href="#linearGradient3779"
       id="linearGradient4527"
       gradientUnits="userSpaceOnUse"
       x1="252.38231"
       y1="473.23358"
       x2="252.38231"
       y2="490.6828" />
    <linearGradient
       inkscape:collect="always"
       xlink:href="#linearGradient3779"
       id="linearGradient4529"
       gradientUnits="userSpaceOnUse"
       x1="252.38231"
       y1="473.23358"
       x2="252.38231"
       y2="490.6828" />
    <linearGradient
       inkscape:collect="always"
       xlink:href="#linearGradient3779"
       id="linearGradient4533"
       gradientUnits="userSpaceOnUse"
       x1="252.29771"
       y1="471.69006"
       x2="252.29771"
       y2="492.25873" />
    <linearGradient
       inkscape:collect="always"
       xlink:href="#linearGradient3779"
       id="linearGradient4535"
       gradientUnits="userSpaceOnUse"
       x1="252.29771"
       y1="471.69006"
       x2="252.29771"
       y2="492.25873" />
  </defs>
  <metadata
     id="metadata7">
    <rdf:RDF>
      <cc:Work
         rdf:about="">
        <dc:format>image/svg+xml</dc:format>
        <dc:type
           rdf:resource="http://purl.org/dc/dcmitype/StillImage" />
        <dc:title></dc:title>
      </cc:Work>
    </rdf:RDF>
  </metadata>
  <g
     id="layer1"
     inkscape:groupmode="layer"
     inkscape:label="Layer 1"
     transform="translate(0,-1004.3621)">
    <g
       id="g3959"
       transform="matrix(0.957265,0,0,0.957265,-229.70941,555.64534)"
       inkscape:export-xdpi="90"
       inkscape:export-ydpi="90">
      <rect
         ry="3"
         rx="3"
         y="471.86221"
         x="242.5"
         height="20"
         width="20"
         id="rect3803"
         style="color:#000000;fill:#000000;fill-opacity:1;fill-rule:nonzero;stroke:none;stroke-width:1;marker:none;visibility:visible;display:inline;overflow:visible;filter:url(#filter3833);enable-background:accumulate" />
      <rect
         style="color:#000000;fill:url(#linearGradient4535);fill-opacity:1;fill-rule:nonzero;stroke:#c5c5c5;stroke-width:1;stroke-miterlimit:4;stroke-opacity:1;stroke-dasharray:none;marker:none;visibility:visible;display:inline;overflow:visible;enable-background:accumulate"
         id="rect2985"
         width="20"
         height="20"
         x="242.5"
         y="471.86221"
         rx="3"
         ry="3" />
    </g>
    <g
       id="g4165"
       transform="matrix(0.957265,0,0,0.957265,-181.70941,530.60042)">
      <rect
         style="color:#000000;fill:#000000;fill-opacity:1;fill-rule:nonzero;stroke:none;stroke-width:1;marker:none;visibility:visible;display:inline;overflow:visible;filter:url(#filter3833);enable-background:accumulate"
         id="rect3837"
         width="20"
         height="20"
         x="242.5"
         y="498.02518"
         rx="3"
         ry="3" />
      <rect
         ry="3"
         rx="3"
         y="498.02518"
         x="242.5"
         height="20"
         width="20"
         id="rect3839"
         style="color:#000000;fill:#f0f0f0;fill-opacity:1;fill-rule:nonzero;stroke:#c5c5c5;stroke-width:1;stroke-miterlimit:4;stroke-opacity:1;stroke-dasharray:none;marker:none;visibility:visible;display:inline;overflow:visible;enable-background:accumulate" />
      <g
         transform="translate(-40.851045,25.746257)"
         id="g3843">
        <path
           sodipodi:nodetypes="ccccccc"
           inkscape:connector-curvature="0"
           id="path3801"
           d="m 288.90586,479.81305 2.95297,2.72254 5.671,-6.21551 2.82671,2.90596 -8.15103,9.01172 -5.85996,-5.17306 z"
           style="fill:#ffffff;fill-opacity:1;stroke:none" />
        <path
           style="fill:#347cff;fill-opacity:1;stroke:none"
           d="m 288.90586,479.81305 2.95297,2.72254 5.671,-6.21551 2.42046,2.46846 -7.74478,8.61581 -5.48496,-4.8084 z"
           id="path3791"
           inkscape:connector-curvature="0"
           sodipodi:nodetypes="ccccccc" />
      </g>
    </g>
    <g
       id="g4172"
       transform="matrix(0.957265,0,0,0.957265,-182.35898,530.60042)">
      <rect
         ry="3"
         rx="3"
         y="498.02518"
         x="268.25"
         height="20"
         width="20"
         id="rect3935"
         style="color:#000000;fill:#000000;fill-opacity:1;fill-rule:nonzero;stroke:#347cff;stroke-width:1;stroke-opacity:1;marker:none;visibility:visible;display:inline;overflow:visible;filter:url(#filter3833);enable-background:accumulate" />
      <rect
         style="color:#000000;fill:#f0f0f0;fill-opacity:1;fill-rule:nonzero;stroke:#347cff;stroke-width:1;stroke-miterlimit:4;stroke-opacity:1;stroke-dasharray:none;marker:none;visibility:visible;display:inline;overflow:visible;enable-background:accumulate"
         id="rect3937"
         width="20"
         height="20"
         x="268.25"
         y="498.02518"
         rx="3"
         ry="3" />
      <g
         id="g3939"
         transform="translate(-15.101045,25.746227)">
        <path
           style="fill:#ffffff;fill-opacity:1;stroke:none"
           d="m 288.90586,479.81305 2.95297,2.72254 5.671,-6.21551 2.82671,2.90596 -8.15103,9.01172 -5.85996,-5.17306 z"
           id="path3941"
           inkscape:connector-curvature="0"
           sodipodi:nodetypes="ccccccc" />
        <path
           sodipodi:nodetypes="ccccccc"
           inkscape:connector-curvature="0"
           id="path3943"
           d="m 288.90586,479.81305 2.95297,2.72254 5.671,-6.21551 2.42046,2.46846 -7.74478,8.61581 -5.48496,-4.8084 z"
           style="fill:#347cff;fill-opacity:1;stroke:none" />
      </g>
    </g>
    <g
       id="g3963"
       transform="matrix(0.957265,0,0,0.957265,-205.70941,555.64534)"
       style="stroke:#347cff;stroke-opacity:1">
      <rect
         style="color:#000000;fill:#000000;fill-opacity:1;fill-rule:nonzero;stroke:#347cff;stroke-width:1;stroke-opacity:1;marker:none;visibility:visible;display:inline;overflow:visible;filter:url(#filter3833);enable-background:accumulate"
         id="rect3965"
         width="20"
         height="20"
         x="242.5"
         y="471.86221"
         rx="3"
         ry="3" />
      <rect
         ry="3"
         rx="3"
         y="471.86221"
         x="242.5"
         height="20"
         width="20"
         id="rect3967"
         style="color:#000000;fill:url(#linearGradient4533);fill-opacity:1;fill-rule:nonzero;stroke:#347cff;stroke-width:1;stroke-miterlimit:4;stroke-opacity:1;stroke-dasharray:none;marker:none;visibility:visible;display:inline;overflow:visible;enable-background:accumulate" />
    </g>
    <g
       id="g4223"
       transform="matrix(1.032377,0,0,1.032377,-248.67519,487.05909)">
      <path
         sodipodi:type="arc"
         style="color:#000000;fill:#000000;fill-opacity:1;fill-rule:nonzero;stroke:none;stroke-width:1;marker:none;visibility:visible;display:inline;overflow:visible;filter:url(#filter4009);enable-background:accumulate"
         id="path3994"
         sodipodi:cx="252.43712"
         sodipodi:cy="482.08057"
         sodipodi:rx="8.485281"
         sodipodi:ry="8.485281"
         d="m 260.9224,482.08057 c 0,4.68629 -3.79899,8.48528 -8.48528,8.48528 -4.68629,0 -8.48528,-3.79899 -8.48528,-8.48528 0,-4.68629 3.79899,-8.48528 8.48528,-8.48528 4.68629,0 8.48528,3.79899 8.48528,8.48528 z"
         transform="matrix(1.0590221,0,0,1.0590221,-14.836486,25.952242)" />
      <path
         transform="matrix(1.0590221,0,0,1.0590221,-14.836486,25.952242)"
         d="m 260.9224,482.08057 c 0,4.68629 -3.79899,8.48528 -8.48528,8.48528 -4.68629,0 -8.48528,-3.79899 -8.48528,-8.48528 0,-4.68629 3.79899,-8.48528 8.48528,-8.48528 4.68629,0 8.48528,3.79899 8.48528,8.48528 z"
         sodipodi:ry="8.485281"
         sodipodi:rx="8.485281"
         sodipodi:cy="482.08057"
         sodipodi:cx="252.43712"
         id="path3976"
         style="color:#000000;fill:url(#linearGradient4529);fill-opacity:1;fill-rule:nonzero;stroke:#c5c5c5;stroke-width:1;stroke-linecap:butt;stroke-linejoin:miter;stroke-miterlimit:4;stroke-opacity:1;stroke-dasharray:none;stroke-dashoffset:0;marker:none;visibility:visible;display:inline;overflow:visible;enable-background:accumulate"
         sodipodi:type="arc" />
    </g>
    <g
       id="g4219"
       transform="matrix(1.032377,0,0,1.032377,-251.32022,487.05909)">
      <path
         sodipodi:type="arc"
         style="color:#000000;fill:#000000;fill-opacity:1;fill-rule:nonzero;stroke:#347cff;stroke-width:1;stroke-opacity:1;marker:none;visibility:visible;display:inline;overflow:visible;filter:url(#filter4009-6);enable-background:accumulate"
         id="path3994-4"
         sodipodi:cx="252.43712"
         sodipodi:cy="482.08057"
         sodipodi:rx="8.485281"
         sodipodi:ry="8.485281"
         d="m 260.9224,482.08057 c 0,4.68629 -3.79899,8.48528 -8.48528,8.48528 -4.68629,0 -8.48528,-3.79899 -8.48528,-8.48528 0,-4.68629 3.79899,-8.48528 8.48528,-8.48528 4.68629,0 8.48528,3.79899 8.48528,8.48528 z"
         transform="matrix(1.0590221,0,0,1.0590221,10.972912,25.952242)" />
      <path
         sodipodi:type="arc"
         style="color:#000000;fill:url(#linearGradient4527);fill-opacity:1;fill-rule:nonzero;stroke:#347cff;stroke-width:1;stroke-linecap:butt;stroke-linejoin:miter;stroke-miterlimit:4;stroke-opacity:1;stroke-dasharray:none;stroke-dashoffset:0;marker:none;visibility:visible;display:inline;overflow:visible;enable-background:accumulate"
         id="path4013"
         sodipodi:cx="252.43712"
         sodipodi:cy="482.08057"
         sodipodi:rx="8.485281"
         sodipodi:ry="8.485281"
         d="m 260.9224,482.08057 c 0,4.68629 -3.79899,8.48528 -8.48528,8.48528 -4.68629,0 -8.48528,-3.79899 -8.48528,-8.48528 0,-4.68629 3.79899,-8.48528 8.48528,-8.48528 4.68629,0 8.48528,3.79899 8.48528,8.48528 z"
         transform="matrix(1.0590221,0,0,1.0590221,10.972912,25.952242)" />
    </g>
    <g
       id="g4212"
       transform="matrix(1.032377,0,0,1.032377,-203.32022,463.15156)">
      <path
         transform="matrix(1.0590221,0,0,1.0590221,10.972912,49.109989)"
         d="m 260.9224,482.08057 c 0,4.68629 -3.79899,8.48528 -8.48528,8.48528 -4.68629,0 -8.48528,-3.79899 -8.48528,-8.48528 0,-4.68629 3.79899,-8.48528 8.48528,-8.48528 4.68629,0 8.48528,3.79899 8.48528,8.48528 z"
         sodipodi:ry="8.485281"
         sodipodi:rx="8.485281"
         sodipodi:cy="482.08057"
         sodipodi:cx="252.43712"
         id="path4045"
         style="color:#000000;fill:#000000;fill-opacity:1;fill-rule:nonzero;stroke:#347cff;stroke-width:1;stroke-opacity:1;marker:none;visibility:visible;display:inline;overflow:visible;filter:url(#filter4009-6);enable-background:accumulate"
         sodipodi:type="arc" />
      <path
         transform="matrix(1.0590221,0,0,1.0590221,10.972912,49.109989)"
         d="m 260.9224,482.08057 c 0,4.68629 -3.79899,8.48528 -8.48528,8.48528 -4.68629,0 -8.48528,-3.79899 -8.48528,-8.48528 0,-4.68629 3.79899,-8.48528 8.48528,-8.48528 4.68629,0 8.48528,3.79899 8.48528,8.48528 z"
         sodipodi:ry="8.485281"
         sodipodi:rx="8.485281"
         sodipodi:cy="482.08057"
         sodipodi:cx="252.43712"
         id="path4051"
         style="color:#000000;fill:url(#linearGradient4525);fill-opacity:1;fill-rule:nonzero;stroke:#347cff;stroke-width:1;stroke-linecap:butt;stroke-linejoin:miter;stroke-miterlimit:4;stroke-opacity:1;stroke-dasharray:none;stroke-dashoffset:0;marker:none;visibility:visible;display:inline;overflow:visible;enable-background:accumulate"
         sodipodi:type="arc" />
      <g
         id="g4195">
        <path
           sodipodi:type="arc"
           style="color:#000000;fill:#ffffff;fill-opacity:1;fill-rule:nonzero;stroke:none;stroke-width:1;marker:none;visibility:visible;display:inline;overflow:visible;enable-background:accumulate"
           id="path4053"
           sodipodi:cx="252.43712"
           sodipodi:cy="482.08057"
           sodipodi:rx="8.485281"
           sodipodi:ry="8.485281"
           d="m 260.9224,482.08057 c 0,4.68629 -3.79899,8.48528 -8.48528,8.48528 -4.68629,0 -8.48528,-3.79899 -8.48528,-8.48528 0,-4.68629 3.79899,-8.48528 8.48528,-8.48528 4.68629,0 8.48528,3.79899 8.48528,8.48528 z"
           transform="matrix(0.4626679,0,0,0.4626679,161.51485,336.79966)" />
        <path
           transform="matrix(0.43402207,0,0,0.43402207,168.74612,350.41036)"
           d="m 260.9224,482.08057 c 0,4.68629 -3.79899,8.48528 -8.48528,8.48528 -4.68629,0 -8.48528,-3.79899 -8.48528,-8.48528 0,-4.68629 3.79899,-8.48528 8.48528,-8.48528 4.68629,0 8.48528,3.79899 8.48528,8.48528 z"
           sodipodi:ry="8.485281"
           sodipodi:rx="8.485281"
           sodipodi:cy="482.08057"
           sodipodi:cx="252.43712"
           id="path4055"
           style="color:#000000;fill:#347cff;fill-opacity:1;fill-rule:nonzero;stroke:none;stroke-width:1;marker:none;visibility:visible;display:inline;overflow:visible;enable-background:accumulate"
           sodipodi:type="arc" />
      </g>
    </g>
    <g
       id="g4205"
       transform="matrix(1.032377,0,0,1.032377,-200.67519,463.15156)">
      <path
         transform="matrix(1.0590221,0,0,1.0590221,-14.836486,49.109989)"
         d="m 260.9224,482.08057 c 0,4.68629 -3.79899,8.48528 -8.48528,8.48528 -4.68629,0 -8.48528,-3.79899 -8.48528,-8.48528 0,-4.68629 3.79899,-8.48528 8.48528,-8.48528 4.68629,0 8.48528,3.79899 8.48528,8.48528 z"
         sodipodi:ry="8.485281"
         sodipodi:rx="8.485281"
         sodipodi:cy="482.08057"
         sodipodi:cx="252.43712"
         id="path4047"
         style="color:#000000;fill:#000000;fill-opacity:1;fill-rule:nonzero;stroke:none;stroke-width:1;marker:none;visibility:visible;display:inline;overflow:visible;filter:url(#filter4009);enable-background:accumulate"
         sodipodi:type="arc" />
      <path
         sodipodi:type="arc"
         style="color:#000000;fill:url(#linearGradient4523);fill-opacity:1;fill-rule:nonzero;stroke:#c5c5c5;stroke-width:1;stroke-linecap:butt;stroke-linejoin:miter;stroke-miterlimit:4;stroke-opacity:1;stroke-dasharray:none;stroke-dashoffset:0;marker:none;visibility:visible;display:inline;overflow:visible;enable-background:accumulate"
         id="path4049"
         sodipodi:cx="252.43712"
         sodipodi:cy="482.08057"
         sodipodi:rx="8.485281"
         sodipodi:ry="8.485281"
         d="m 260.9224,482.08057 c 0,4.68629 -3.79899,8.48528 -8.48528,8.48528 -4.68629,0 -8.48528,-3.79899 -8.48528,-8.48528 0,-4.68629 3.79899,-8.48528 8.48528,-8.48528 4.68629,0 8.48528,3.79899 8.48528,8.48528 z"
         transform="matrix(1.0590221,0,0,1.0590221,-14.836486,49.109989)" />
      <g
         transform="translate(-25.8094,-0.19890049)"
         id="g4199">
        <path
           transform="matrix(0.4626679,0,0,0.4626679,161.51485,336.79966)"
           d="m 260.9224,482.08057 c 0,4.68629 -3.79899,8.48528 -8.48528,8.48528 -4.68629,0 -8.48528,-3.79899 -8.48528,-8.48528 0,-4.68629 3.79899,-8.48528 8.48528,-8.48528 4.68629,0 8.48528,3.79899 8.48528,8.48528 z"
           sodipodi:ry="8.485281"
           sodipodi:rx="8.485281"
           sodipodi:cy="482.08057"
           sodipodi:cx="252.43712"
           id="path4201"
           style="color:#000000;fill:#ffffff;fill-opacity:1;fill-rule:nonzero;stroke:none;stroke-width:1;marker:none;visibility:visible;display:inline;overflow:visible;enable-background:accumulate"
           sodipodi:type="arc" />
        <path
           sodipodi:type="arc"
           style="color:#000000;fill:#347cff;fill-opacity:1;fill-rule:nonzero;stroke:none;stroke-width:1;marker:none;visibility:visible;display:inline;overflow:visible;enable-background:accumulate"
           id="path4203"
           sodipodi:cx="252.43712"
           sodipodi:cy="482.08057"
           sodipodi:rx="8.485281"
           sodipodi:ry="8.485281"
           d="m 260.9224,482.08057 c 0,4.68629 -3.79899,8.48528 -8.48528,8.48528 -4.68629,0 -8.48528,-3.79899 -8.48528,-8.48528 0,-4.68629 3.79899,-8.48528 8.48528,-8.48528 4.68629,0 8.48528,3.79899 8.48528,8.48528 z"
           transform="matrix(0.43402207,0,0,0.43402207,168.74612,350.41036)" />
      </g>
    </g>
  </g>
</svg>
